<svg width="35" height="35" viewBox="0 0 35 35" fill="none" xmlns="http://www.w3.org/2000/svg">
<path d="M35 11.6692C35 11.8512 34.9304 12.0258 34.8065 12.1546C34.6827 12.2833 34.5147 12.3556 34.3395 12.3556H31.0369V15.7877C31.0369 15.9698 30.9673 16.1444 30.8434 16.2731C30.7196 16.4018 30.5516 16.4742 30.3764 16.4742C30.2012 16.4742 30.0332 16.4018 29.9093 16.2731C29.7855 16.1444 29.7159 15.9698 29.7159 15.7877V12.3556H26.4133C26.2381 12.3556 26.0701 12.2833 25.9462 12.1546C25.8224 12.0258 25.7528 11.8512 25.7528 11.6692C25.7528 11.4871 25.8224 11.3125 25.9462 11.1838C26.0701 11.0551 26.2381 10.9828 26.4133 10.9828H29.7159V7.55065C29.7159 7.3686 29.7855 7.19401 29.9093 7.06528C30.0332 6.93655 30.2012 6.86423 30.3764 6.86423C30.5516 6.86423 30.7196 6.93655 30.8434 7.06528C30.9673 7.19401 31.0369 7.3686 31.0369 7.55065V10.9828H34.3395C34.5147 10.9828 34.6827 11.0551 34.8065 11.1838C34.9304 11.3125 35 11.4871 35 11.6692ZM19.8082 4.11854H21.7897V6.17781C21.7897 6.35986 21.8593 6.53445 21.9832 6.66318C22.107 6.79191 22.275 6.86423 22.4502 6.86423C22.6254 6.86423 22.7934 6.79191 22.9173 6.66318C23.0411 6.53445 23.1107 6.35986 23.1107 6.17781V4.11854H25.0923C25.2675 4.11854 25.4355 4.04622 25.5593 3.91749C25.6832 3.78876 25.7528 3.61417 25.7528 3.43212C25.7528 3.25006 25.6832 3.07547 25.5593 2.94674C25.4355 2.81801 25.2675 2.74569 25.0923 2.74569H23.1107V0.686423C23.1107 0.504372 23.0411 0.329778 22.9173 0.201049C22.7934 0.0723195 22.6254 0 22.4502 0C22.275 0 22.107 0.0723195 21.9832 0.201049C21.8593 0.329778 21.7897 0.504372 21.7897 0.686423V2.74569H19.8082C19.633 2.74569 19.465 2.81801 19.3411 2.94674C19.2172 3.07547 19.1476 3.25006 19.1476 3.43212C19.1476 3.61417 19.2172 3.78876 19.3411 3.91749C19.465 4.04622 19.633 4.11854 19.8082 4.11854ZM31.1195 22.549C31.1523 22.6842 31.1523 22.8257 31.1195 22.9609C30.3742 25.7314 28.9439 28.2509 26.9707 30.2686C24.9976 32.2863 22.5504 33.7318 19.8727 34.4614C17.195 35.191 14.3802 35.1792 11.7082 34.4271C9.03631 33.6751 6.60046 32.209 4.64305 30.1748C2.68564 28.1406 1.27492 25.6092 0.551262 22.8325C-0.172398 20.0558 -0.18377 17.1305 0.518277 14.3478C1.22032 11.5651 2.61131 9.02192 4.55284 6.97136C6.49437 4.9208 8.91875 3.43435 11.5847 2.65989C11.7255 2.61437 11.8771 2.62042 12.0141 2.67705C12.144 2.73123 12.254 2.82692 12.3282 2.95029C12.4024 3.07367 12.437 3.21836 12.4269 3.36347C12.4295 3.41554 12.4239 3.46771 12.4104 3.51792C11.7252 6.09165 11.709 8.80816 12.3635 11.3905C13.0179 13.9729 14.3195 16.3287 16.1357 18.2178C17.9518 20.107 20.2175 21.4618 22.7018 22.1443C25.1861 22.8268 27.8001 22.8125 30.2773 22.1028L30.4755 22.0685C30.6172 22.0706 30.7549 22.1178 30.87 22.2037C30.9852 22.2896 31.0722 22.4101 31.1195 22.549ZM29.5012 23.7159C26.9446 24.2407 24.3029 24.1031 21.8096 23.3151C19.3163 22.5272 17.048 21.1133 15.2053 19.1983C13.3625 17.2833 12.002 14.9261 11.2438 12.335C10.4856 9.74384 10.3532 6.99856 10.8582 4.34163C8.56633 5.21413 6.52288 6.67252 4.91642 8.58219C3.30997 10.4919 2.19226 12.7913 1.66646 15.2683C1.14066 17.7452 1.2237 20.3199 1.90792 22.7548C2.59215 25.1896 3.85551 27.4061 5.58141 29.1997C7.3073 30.9933 9.44013 32.3062 11.7831 33.0172C14.126 33.7283 16.6035 33.8146 18.987 33.2682C21.3705 32.7217 23.5831 31.5602 25.4207 29.8907C27.2583 28.2213 28.6616 26.0977 29.5012 23.7159Z" fill="#252525"/>
</svg>
