<svg width="35" height="35" viewBox="0 0 35 35" fill="none" xmlns="http://www.w3.org/2000/svg">
<path d="M17.5 7.58333C15.5387 7.58333 13.6214 8.16494 11.9906 9.25459C10.3598 10.3443 9.08876 11.893 8.33819 13.7051C7.58763 15.5171 7.39124 17.511 7.77388 19.4346C8.15652 21.3583 9.10099 23.1253 10.4879 24.5121C11.8747 25.899 13.6417 26.8435 15.5654 27.2261C17.489 27.6088 19.4829 27.4124 21.2949 26.6618C23.107 25.9112 24.6557 24.6402 25.7454 23.0094C26.8351 21.3786 27.4167 19.4613 27.4167 17.5C27.4128 14.8711 26.3668 12.351 24.5079 10.4921C22.649 8.63322 20.1289 7.58719 17.5 7.58333ZM17.5 25.0833C16.0002 25.0833 14.534 24.6386 13.2869 23.8053C12.0399 22.972 11.0679 21.7877 10.4939 20.402C9.91995 19.0163 9.76977 17.4916 10.0624 16.0206C10.355 14.5495 11.0772 13.1983 12.1378 12.1378C13.1983 11.0772 14.5495 10.355 16.0206 10.0624C17.4916 9.76977 19.0163 9.91995 20.402 10.4939C21.7877 11.0679 22.972 12.0399 23.8053 13.2869C24.6386 14.534 25.0833 16.0002 25.0833 17.5C25.0833 19.5112 24.2844 21.4401 22.8622 22.8622C21.4401 24.2844 19.5112 25.0833 17.5 25.0833ZM16.3333 4.08333V1.16667C16.3333 0.857247 16.4562 0.560501 16.675 0.341709C16.8938 0.122916 17.1906 0 17.5 0C17.8094 0 18.1062 0.122916 18.325 0.341709C18.5438 0.560501 18.6667 0.857247 18.6667 1.16667V4.08333C18.6667 4.39275 18.5438 4.6895 18.325 4.90829C18.1062 5.12708 17.8094 5.25 17.5 5.25C17.1906 5.25 16.8938 5.12708 16.675 4.90829C16.4562 4.6895 16.3333 4.39275 16.3333 4.08333ZM5.11875 6.78125C4.99129 6.67664 4.88715 6.54651 4.81302 6.39923C4.73889 6.25195 4.69641 6.09078 4.68832 5.9261C4.68023 5.76141 4.70671 5.59685 4.76606 5.44302C4.8254 5.28918 4.91629 5.14947 5.03288 5.03288C5.14947 4.91629 5.28918 4.8254 5.44302 4.76606C5.59685 4.70671 5.76141 4.68023 5.9261 4.68832C6.09078 4.69641 6.25195 4.73889 6.39923 4.81302C6.54651 4.88715 6.67664 4.99129 6.78125 5.11875L8.8375 7.18958C9.05568 7.40829 9.17821 7.70461 9.17821 8.01354C9.17821 8.32247 9.05568 8.61879 8.8375 8.8375C8.61695 9.05219 8.32133 9.17232 8.01354 9.17232C7.70576 9.17232 7.41013 9.05219 7.18958 8.8375L5.11875 6.78125ZM4.08333 18.6667H1.16667C0.857247 18.6667 0.560501 18.5438 0.341709 18.325C0.122916 18.1062 0 17.8094 0 17.5C0 17.1906 0.122916 16.8938 0.341709 16.675C0.560501 16.4562 0.857247 16.3333 1.16667 16.3333H4.08333C4.39275 16.3333 4.6895 16.4562 4.90829 16.675C5.12708 16.8938 5.25 17.1906 5.25 17.5C5.25 17.8094 5.12708 18.1062 4.90829 18.325C4.6895 18.5438 4.39275 18.6667 4.08333 18.6667ZM8.8375 26.1625C9.05568 26.3812 9.17821 26.6775 9.17821 26.9865C9.17821 27.2954 9.05568 27.5917 8.8375 27.8104L6.78125 29.8812C6.5573 30.0953 6.2598 30.2154 5.95 30.2167C5.64078 30.2125 5.34429 30.0928 5.11875 29.8812C4.89967 29.6601 4.77677 29.3613 4.77677 29.05C4.77677 28.7387 4.89967 28.4399 5.11875 28.2187L7.18958 26.1625C7.40829 25.9443 7.70461 25.8218 8.01354 25.8218C8.32247 25.8218 8.61879 25.9443 8.8375 26.1625ZM18.6667 30.9167V33.8333C18.6667 34.1427 18.5438 34.4395 18.325 34.6583C18.1062 34.8771 17.8094 35 17.5 35C17.1906 35 16.8938 34.8771 16.675 34.6583C16.4562 34.4395 16.3333 34.1427 16.3333 33.8333V30.9167C16.3333 30.6072 16.4562 30.3105 16.675 30.0917C16.8938 29.8729 17.1906 29.75 17.5 29.75C17.8094 29.75 18.1062 29.8729 18.325 30.0917C18.5438 30.3105 18.6667 30.6072 18.6667 30.9167ZM29.8812 28.2187C30.1003 28.4399 30.2232 28.7387 30.2232 29.05C30.2232 29.3613 30.1003 29.6601 29.8812 29.8812C29.6557 30.0928 29.3592 30.2125 29.05 30.2167C28.7402 30.2154 28.4427 30.0953 28.2187 29.8812L26.1625 27.8104C25.9614 27.5885 25.8534 27.2977 25.8607 26.9983C25.8681 26.699 25.9903 26.4139 26.2021 26.2021C26.4139 25.9903 26.699 25.8681 26.9983 25.8607C27.2977 25.8534 27.5885 25.9614 27.8104 26.1625L29.8812 28.2187ZM35 17.5C35 17.8094 34.8771 18.1062 34.6583 18.325C34.4395 18.5438 34.1427 18.6667 33.8333 18.6667H30.9167C30.6072 18.6667 30.3105 18.5438 30.0917 18.325C29.8729 18.1062 29.75 17.8094 29.75 17.5C29.75 17.1906 29.8729 16.8938 30.0917 16.675C30.3105 16.4562 30.6072 16.3333 30.9167 16.3333H33.8333C34.1427 16.3333 34.4395 16.4562 34.6583 16.675C34.8771 16.8938 35 17.1906 35 17.5ZM26.1625 8.8375C25.9443 8.61879 25.8218 8.32247 25.8218 8.01354C25.8218 7.70461 25.9443 7.40829 26.1625 7.18958L28.2187 5.11875C28.4454 4.93271 28.7332 4.83764 29.0261 4.85202C29.319 4.86641 29.5961 4.98922 29.8034 5.19658C30.0108 5.40394 30.1336 5.68101 30.148 5.9739C30.1624 6.2668 30.0673 6.55457 29.8812 6.78125L27.8104 8.8375C27.5899 9.05219 27.2942 9.17232 26.9865 9.17232C26.6787 9.17232 26.383 9.05219 26.1625 8.8375Z" fill="white"/>
</svg>
